mtllib crazed.mtl
o Default
v 1.5 -2 -1.5
v -1.5 1 -1.5
v 1.5 1 -1.5
v -1.5 -2 -1.5
v 1.5 -2 1.5
v 1.5 1 1.5
v -1.5 1 1.5
v -1.5 -2 1.5
vt 0.20000000298023224 0.800000011920929
vt 0.800000011920929 0.20000000298023224
vt 0.800000011920929 0.800000011920929
vt 0.20000000298023224 0.800000011920929
vt 0.20000000298023224 0.20000000298023224
vt 0.800000011920929 0.20000000298023224
vt 0.20000000298023224 0.800000011920929
vt 0.800000011920929 0.20000000298023224
vt 0.800000011920929 0.800000011920929
vt 0.20000000298023224 0.800000011920929
vt 0.20000000298023224 0.20000000298023224
vt 0.800000011920929 0.20000000298023224
vt 0.20000000298023224 0.800000011920929
vt 0.800000011920929 0.20000000298023224
vt 0.800000011920929 0.800000011920929
vt 0.20000000298023224 0.800000011920929
vt 0.20000000298023224 0.20000000298023224
vt 0.800000011920929 0.20000000298023224
vt 0.20000000298023224 0.800000011920929
vt 0.800000011920929 0.20000000298023224
vt 0.800000011920929 0.800000011920929
vt 0.20000000298023224 0.800000011920929
vt 0.20000000298023224 0.20000000298023224
vt 0.800000011920929 0.20000000298023224
vt 0.20000000298023224 0.800000011920929
vt 0.800000011920929 0.20000000298023224
vt 0.800000011920929 0.800000011920929
vt 0.20000000298023224 0.800000011920929
vt 0.20000000298023224 0.20000000298023224
vt 0.800000011920929 0.20000000298023224
vt 0.20000000298023224 0.800000011920929
vt 0.800000011920929 0.20000000298023224
vt 0.800000011920929 0.800000011920929
vt 0.20000000298023224 0.800000011920929
vt 0.20000000298023224 0.20000000298023224
vt 0.800000011920929 0.20000000298023224
vn 0 0 -1
vn 0 0 -1
vn 0 0 -1
vn 0 0 -1
vn 0 0 -1
vn 0 0 -1
vn 1 0 0
vn 1 0 0
vn 1 0 0
vn 1 0 0
vn 1 0 0
vn 1 0 0
vn 0 1 0
vn 0 1 0
vn 0 1 0
vn 0 1 0
vn 0 1 0
vn 0 1 0
vn 0 0 1
vn 0 0 1
vn 0 0 1
vn 0 0 1
vn 0 0 1
vn 0 0 1
vn -1 0 0
vn -1 0 0
vn -1 0 0
vn -1 0 0
vn -1 0 0
vn -1 0 0
vn 0 -1 0
vn 0 -1 0
vn 0 -1 0
vn 0 -1 0
vn 0 -1 0
vn 0 -1 0
g Scene
usemtl 1
f 1/1/1 4/5/5 2/2/2 3/3/3
f 5/7/7 1/11/11 3/8/8 6/9/9
f 3/13/13 2/17/17 7/14/14 6/15/15
f 8/19/19 5/23/23 6/20/20 7/21/21
f 4/25/25 8/29/29 7/26/26 2/27/27
f 1/31/31 5/35/35 8/32/32 4/33/33
