mtllib vased.mtl
o Default
v 1.5 -2.500091791152954 1.4999500513076782
v 1.5 2.499908208847046 -1.5000499486923218
v 1.5 2.499908208847046 1.4999500513076782
v 1.5 -2.500091791152954 -1.5000499486923218
v -1.5 -2.500091791152954 1.4999500513076782
v -1.5 2.499908208847046 1.4999500513076782
v -1.5 -2.500091791152954 -1.5000499486923218
v -1.5 2.499908208847046 -1.5000499486923218
v -0.5 2.499908208847046 0.49994999170303345
v -1.5 2.499908208847046 0.49994999170303345
v -0.5 2.499908208847046 1.4999500513076782
v 1 -3.500091791152954 -1.0000499486923218
v -1 -3.500091791152954 -1.0000499486923218
v -1 -3.500091791152954 0.9999499917030334
v 1 -3.500091791152954 0.9999499917030334
v -1 -3.500091791152954 -0.00005000249802833423
v 1 -3.500091791152954 -0.00005000249802833423
v -0.5 2.499908208847046 -0.5000500082969666
v -1.5 2.499908208847046 -0.5000500082969666
v 0.5 2.499908208847046 0.49994999170303345
v 0.5 2.499908208847046 1.4999500513076782
v 1.5 2.499908208847046 0.49994999170303345
v 1.5 2.499908208847046 -0.5000500082969666
v 0.5 2.499908208847046 -0.5000500082969666
v 0.5 2.499908208847046 -1.5000499486923218
v -0.5 2.499908208847046 -1.5000499486923218
vt 0.125 0.25
vt 0.3125 0.5625
vt 0.125 0.5625
vt 0.125 0.25
vt 0.3125 0.25
vt 0.3125 0.5625
vt 0.3125 0.25
vt 0.5 0.5625
vt 0.3125 0.5625
vt 0.3125 0.25
vt 0.5 0.25
vt 0.5 0.5625
vt 0.125 0.25
vt 0.3125 0.5625
vt 0.125 0.5625
vt 0.125 0.25
vt 0.3125 0.25
vt 0.3125 0.5625
vt 0.3125 0.25
vt 0.5 0.5625
vt 0.3125 0.5625
vt 0.3125 0.25
vt 0.5 0.25
vt 0.5 0.5625
vt 0.25 0.625
vt 0.3125 0.6875
vt 0.25 0.6875
vt 0.25 0.625
vt 0.3125 0.625
vt 0.3125 0.6875
vt 0.1875 0.125
vt 0.375 0.1875
vt 0.1875 0.1875
vt 0.1875 0.125
vt 0.375 0.125
vt 0.375 0.1875
vt 0.1875 0.125
vt 0.375 0.1875
vt 0.1875 0.1875
vt 0.1875 0.125
vt 0.375 0.125
vt 0.375 0.1875
vt 0.1875 0.125
vt 0.375 0.1875
vt 0.1875 0.1875
vt 0.1875 0.125
vt 0.375 0.125
vt 0.375 0.1875
vt 0.1875 0.125
vt 0.375 0.1875
vt 0.1875 0.1875
vt 0.1875 0.125
vt 0.375 0.125
vt 0.375 0.1875
vt 0.25 0.125
vt 0.375 0.1875
vt 0.25 0.1875
vt 0.25 0.125
vt 0.375 0.125
vt 0.375 0.1875
vt 0.25 0.125
vt 0.375 0.1875
vt 0.25 0.1875
vt 0.25 0.125
vt 0.375 0.125
vt 0.375 0.1875
vt 0.75 0.4375
vt 0.8125 0.5
vt 0.75 0.5
vt 0.75 0.4375
vt 0.8125 0.4375
vt 0.8125 0.5
vt 0.75 0.5625
vt 0.8125 0.625
vt 0.75 0.625
vt 0.75 0.5625
vt 0.8125 0.5625
vt 0.8125 0.625
vt 0.25 0.625
vt 0.3125 0.6875
vt 0.25 0.6875
vt 0.25 0.625
vt 0.3125 0.625
vt 0.3125 0.6875
vt 0.25 0.625
vt 0.3125 0.6875
vt 0.25 0.6875
vt 0.25 0.625
vt 0.3125 0.625
vt 0.3125 0.6875
vt 0.25 0.625
vt 0.3125 0.6875
vt 0.25 0.6875
vt 0.25 0.625
vt 0.3125 0.625
vt 0.3125 0.6875
vt 0.25 0.625
vt 0.3125 0.6875
vt 0.25 0.6875
vt 0.25 0.625
vt 0.3125 0.625
vt 0.3125 0.6875
vt 0.25 0.625
vt 0.3125 0.6875
vt 0.25 0.6875
vt 0.25 0.625
vt 0.3125 0.625
vt 0.3125 0.6875
vt 0.75 0.5625
vt 0.8125 0.625
vt 0.75 0.625
vt 0.75 0.5625
vt 0.8125 0.5625
vt 0.8125 0.625
vn 0.9882731152012093 -0.15269659384052195 0
vn 1 0 0
vn 1 0 0
vn 0.9882731152012093 -0.15269659384052195 0
vn 0.9522263391221704 -0.30539318768104384 0
vn 1 0 0
vn 0 -0.15269660916203312 0.9882731128339055
vn 0 0 1
vn 0 0 1
vn 0 -0.15269660916203312 0.9882731128339055
vn 0 -0.30539321832406624 0.9522263292944956
vn 0 0 1
vn -0.9882731152012093 -0.15269659384052195 0
vn -1 0 0
vn -1 0 0
vn -0.9882731152012093 -0.15269659384052195 0
vn -0.9522263391221704 -0.30539318768104384 0
vn -1 0 0
vn 0 -0.15269659384052195 -0.9882731152012093
vn 0 0 -1
vn 0 0 -1
vn 0 -0.15269659384052195 -0.9882731152012093
vn 0 -0.30539318768104384 -0.9522263391221704
vn 0 0 -1
vn 0 1 0
vn 0 1 0
vn 0 1 0
vn 0 1 0
vn 0 1 0
vn 0 1 0
vn 0.2904461811762055 -0.7603979742219161 -0.5808923623524112
vn -0.27764781123096893 -0.41647171684645345 -0.865715312320176
vn 0.4890847491194678 -0.36681356183960084 -0.791355747454514
vn 0.2904461811762055 -0.7603979742219161 -0.5808923623524112
vn -0.45933696902432863 -0.8580570704268036 -0.2296684845121643
vn -0.27764781123096893 -0.41647171684645345 -0.865715312320176
vn -0.45933696902432863 -0.8580570704268036 -0.2296684845121643
vn -0.8657153091379305 -0.41647172855484194 0.2776478035907356
vn -0.791355747454514 -0.3668135618396009 -0.4890847491194678
vn -0.45933696902432863 -0.8580570704268036 -0.2296684845121643
vn -0.29044617739539674 -0.7603979920227352 0.5808923409412402
vn -0.8657153091379305 -0.41647172855484194 0.2776478035907356
vn 0.4593369652856175 -0.8580570743942102 0.22966847716708527
vn 0.865715312320176 -0.4164717168464534 -0.27764781123096893
vn 0.7913557451979374 -0.36681358411499737 0.4890847360641374
vn 0.4593369652856175 -0.8580570743942102 0.22966847716708527
vn 0.2904461811762055 -0.7603979742219161 -0.5808923623524112
vn 0.865715312320176 -0.4164717168464534 -0.27764781123096893
vn -0.29044617739539674 -0.7603979920227352 0.5808923409412402
vn 0.2776478113514338 -0.41647174350570837 0.8657152994565096
vn -0.48908474928408296 -0.36681357362375094 0.7913557418905223
vn -0.29044617739539674 -0.7603979920227352 0.5808923409412402
vn 0.4593369652856175 -0.8580570743942102 0.22966847716708527
vn 0.2776478113514338 -0.41647174350570837 0.8657152994565096
vn 0 -1 0
vn 0.4593369652856175 -0.8580570743942102 0.22966847716708527
vn -0.29044617739539674 -0.7603979920227352 0.5808923409412402
vn 0 -1 0
vn 0 -1 0
vn 0.4593369652856175 -0.8580570743942102 0.22966847716708527
vn -0.45933696902432863 -0.8580570704268036 -0.2296684845121643
vn 0 -1 0
vn 0 -1 0
vn -0.45933696902432863 -0.8580570704268036 -0.2296684845121643
vn 0.2904461811762055 -0.7603979742219161 -0.5808923623524112
vn 0 -1 0
vn 0 1 0
vn 0 1 0
vn 0 1 0
vn 0 1 0
vn 0 1 0
vn 0 1 0
vn 0 1 0
vn 0 1 0
vn 0 1 0
vn 0 1 0
vn 0 1 0
vn 0 1 0
vn 0 1 0
vn 0 1 0
vn 0 1 0
vn 0 1 0
vn 0 1 0
vn 0 1 0
vn 0 1 0
vn 0 1 0
vn 0 1 0
vn 0 1 0
vn 0 1 0
vn 0 1 0
vn 0 1 0
vn 0 1 0
vn 0 1 0
vn 0 1 0
vn 0 1 0
vn 0 1 0
vn 0 1 0
vn 0 1 0
vn 0 1 0
vn 0 1 0
vn 0 1 0
vn 0 1 0
vn 0 1 0
vn 0 1 0
vn 0 1 0
vn 0 1 0
vn 0 1 0
vn 0 1 0
vn 0 1 0
vn 0 1 0
vn 0 1 0
vn 0 1 0
vn 0 1 0
vn 0 1 0
g Scene
usemtl 1
f 1/1/1 4/5/5 2/2/2 3/3/3
f 5/7/7 1/11/11 3/8/8 6/9/9
f 7/13/13 5/17/17 6/14/14 8/15/15
f 4/19/19 7/23/23 8/20/20 2/21/21
f 6/25/25 11/29/29 9/26/26 10/27/27
f 12/31/31 13/35/35 7/32/32 4/33/33
f 13/37/37 14/41/41 5/38/38 7/39/39
f 15/43/43 12/47/47 4/44/44 1/45/45
f 14/49/49 15/53/53 1/50/50 5/51/51
f 16/55/55 17/59/59 15/56/56 14/57/57
f 13/61/61 12/65/65 17/62/62 16/63/63
f 10/67/67 9/71/71 18/68/68 19/69/69
f 11/73/73 21/77/77 20/74/74 9/75/75
f 21/79/79 3/83/83 22/80/80 20/81/81
f 20/85/85 22/89/89 23/86/86 24/87/87
f 18/91/91 24/95/95 25/92/92 26/93/93
f 9/97/97 20/101/101 24/98/98 18/99/99
f 19/103/103 18/107/107 26/104/104 8/105/105
f 24/109/109 23/113/113 2/110/110 25/111/111
